<?xml version="1.0" encoding="iso-8859-1"?>
<!-- Generator: Adobe Illustrator 22.1.0, SVG Export Plug-In . SVG Version: 6.00 Build 0)  -->
<svg xmlns="http://www.w3.org/2000/svg" xmlns:xlink="http://www.w3.org/1999/xlink" version="1.1" id="Layer_1" x="0px" y="0px" viewBox="0 0 48 48" style="enable-background:new 0 0 48 48;" xml:space="preserve" width="480px" height="480px">
<path style="fill:#FF8F00;" d="M8,37L23.234,8.436c0.321-0.602,1.189-0.591,1.494,0.02L30,19L8,37z"/>
<path style="fill:#FFA000;" d="M8,36.992l5.546-34.199c0.145-0.895,1.347-1.089,1.767-0.285L26,22.992L8,36.992z"/>
<polygon style="fill:#FF6F00;" points="8.008,36.986 8.208,36.829 25.737,22.488 20.793,13.012 "/>
<path style="fill:#FFC400;" d="M8,37l26.666-25.713c0.559-0.539,1.492-0.221,1.606,0.547L40,37l-15,8.743  c-0.609,0.342-1.352,0.342-1.961,0L8,37z"/>
</svg>
