<svg id="Layer_1" data-name="Layer 1" xmlns="http://www.w3.org/2000/svg" viewBox="0 0 60 8"><defs><style>.cls-1{fill:#fff;}</style></defs><title>Artboard 1</title><path class="cls-1" d="M7.48,7.94c-.11,0-.22-.08-.34-.25A.94.94,0,0,1,7,7.21q-.12-.84-.29-2T6.2,2.6L5.31,4.24,4.43,5.86c-.18.34-.37.51-.56.51a.74.74,0,0,1-.66-.42A17.6,17.6,0,0,0,2.12,4.56Q1.55,3.92.95,3.28q0,1,0,1.9T1.16,7a.41.41,0,0,1,0,.28A.31.31,0,0,1,1,7.43a.44.44,0,0,1-.42-.09A.63.63,0,0,1,.3,7a7.3,7.3,0,0,1-.2-1.16Q0,5.21,0,4.55T0,3.27q0-.64,0-1.16t.39-.58a.55.55,0,0,1,.41.17A.69.69,0,0,1,1,2.17q.75.72,1.42,1.48t1.3,1.54L4.79,3.32A17.71,17.71,0,0,1,6,1.45a.73.73,0,0,1,.17-.33A.68.68,0,0,1,6.48.9.33.33,0,0,1,6.83,1a.94.94,0,0,1,.24.43q.26,1.46.44,2.92T7.89,7.3a.62.62,0,0,1-.11.46A.38.38,0,0,1,7.48,7.94Z"/><path class="cls-1" d="M12.88,2.05q.06.41.1.86t.06.92q0,.46,0,.9t0,.78a1.49,1.49,0,0,1,.58.56.57.57,0,0,1,0,.43.34.34,0,0,1-.32.27,1.1,1.1,0,0,1-.54-.15l-.48.31q-.27.17-.57.32t-.6.27a3,3,0,0,1-.56.16,1.21,1.21,0,0,1-1.39-.91,1.74,1.74,0,0,1,0-.69,1.87,1.87,0,0,1,.23-.68,2.09,2.09,0,0,1,.49-.59,2.26,2.26,0,0,1,.73-.4,1.35,1.35,0,0,1,.29-.07,2.1,2.1,0,0,1,.39,0,1.42,1.42,0,0,1,.41.08,1.06,1.06,0,0,1,.39.25q0-.25,0-.54t0-.6q0-.3,0-.57T12,2.47a.29.29,0,0,0-.17-.27.54.54,0,0,0-.35,0,3.36,3.36,0,0,0-.84.45,10.88,10.88,0,0,0-.92.71.38.38,0,0,1-.31.12.47.47,0,0,1-.29-.13.42.42,0,0,1-.14-.27A.46.46,0,0,1,9,2.78q.26-.26.57-.54a5.88,5.88,0,0,1,.66-.5A4.1,4.1,0,0,1,11,1.37a2.19,2.19,0,0,1,.72-.16,1.19,1.19,0,0,1,.81.22A1,1,0,0,1,12.88,2.05ZM11.13,5.16a1.32,1.32,0,0,0-.41.18,1.83,1.83,0,0,0-.39.33,1.28,1.28,0,0,0-.26.43.71.71,0,0,0,0,.47.22.22,0,0,0,.13.13.33.33,0,0,0,.22,0,3.81,3.81,0,0,0,.82-.28A2.83,2.83,0,0,0,12,6a.44.44,0,0,0-.09-.22,2.51,2.51,0,0,0-.21-.27,1.51,1.51,0,0,0-.26-.24A.39.39,0,0,0,11.13,5.16Z"/><path class="cls-1" d="M19,2.41l-.57.3a5.73,5.73,0,0,0-.59.37,3.74,3.74,0,0,0-.56.49,3.2,3.2,0,0,0-.48.67,3.72,3.72,0,0,0-.41,1.12,8.77,8.77,0,0,0-.14,1.12,1.22,1.22,0,0,1-.13.53.39.39,0,0,1-.35.27A.52.52,0,0,1,15.36,7a1.84,1.84,0,0,1-.23-.54q-.26-1-.42-2t-.29-2a.25.25,0,0,1,.13-.26.58.58,0,0,1,.29,0,1.08,1.08,0,0,1,.35.09.31.31,0,0,1,.2.23q.06.53.15,1.12t.18,1a2.46,2.46,0,0,1,.33-1,3.77,3.77,0,0,1,.67-.84,4,4,0,0,1,.9-.64,3.49,3.49,0,0,1,1-.35,1.22,1.22,0,0,1,.38,0,.36.36,0,0,1,.21.1.27.27,0,0,1,0,.23A.5.5,0,0,1,19,2.41Z"/><path class="cls-1" d="M23.36,3.53a1.13,1.13,0,0,1,.57.13.47.47,0,0,1,.29.45.34.34,0,0,1-.28.31,1.67,1.67,0,0,1-.4.06h-.65l-.71,0q0,.48-.05.9t0,.74q0,.33,0,.53a.7.7,0,0,0,0,.22,4.31,4.31,0,0,0,.72-.19l.77-.3.75-.35.7-.34a.42.42,0,0,1,.28,0,.19.19,0,0,1,.16.13.8.8,0,0,1,0,.39,1,1,0,0,1-.27.42,6.74,6.74,0,0,1-.6.4q-.37.22-.79.43a8.52,8.52,0,0,1-.85.35,3.15,3.15,0,0,1-.76.18.83.83,0,0,1-.75-.26A1.28,1.28,0,0,1,21.11,7a10.41,10.41,0,0,1,0-1.07q0-.61.05-1.29l-.55.05-.51.05a1.24,1.24,0,0,1-.43-.09.33.33,0,0,1-.23-.33.55.55,0,0,1,.08-.23.51.51,0,0,1,.33-.22q.62-.1,1.37-.17,0-.68.11-1.32t.11-1.16a.61.61,0,0,1,.11-.3.25.25,0,0,1,.2-.13.86.86,0,0,1,.49.12q.23.14.23.31-.06.49-.11,1.11t-.1,1.27l.58,0Z"/><path class="cls-1" d="M28.62,1.5a.2.2,0,0,1-.21.16h-.3a7.33,7.33,0,0,0-1.61.25.52.52,0,0,1-.39,0,.49.49,0,0,1-.26-.4.23.23,0,0,1,.09-.19,1.1,1.1,0,0,1,.21-.13A2.73,2.73,0,0,1,26.61,1a4.31,4.31,0,0,1,.55-.09,4.09,4.09,0,0,1,.54,0,1.94,1.94,0,0,1,.42.05.89.89,0,0,1,.38.22A.39.39,0,0,1,28.62,1.5Zm-.35,4.81a1.28,1.28,0,0,1,.11.5.38.38,0,0,1-.16.37.41.41,0,0,1-.45,0,.92.92,0,0,1-.36-.39A2.65,2.65,0,0,1,27.16,6q-.09-.44-.14-.87T27,4.35q0-.38,0-.56a.82.82,0,0,1,.12-.38.39.39,0,0,1,.27-.2.56.56,0,0,1,.44.24.85.85,0,0,1,.15.56q0,.26,0,.58t.06.64c0,.21.06.42.11.61A2.07,2.07,0,0,0,28.27,6.32Z"/><path class="cls-1" d="M30.7,2.63l.1.48.11.55q.06.28.11.57c0,.19.05.38.08.55l.39-.8a6.16,6.16,0,0,1,.46-.77,3,3,0,0,1,.53-.59.94.94,0,0,1,.61-.23,1.12,1.12,0,0,1,.84.35,3,3,0,0,1,.57.86,5.93,5.93,0,0,1,.37,1.08q.14.56.23,1t-.36.58c-.14.07-.25.08-.32,0a.26.26,0,0,1-.12-.14,4.62,4.62,0,0,1-.19-.61q-.11-.43-.26-.88a4.48,4.48,0,0,0-.32-.78q-.18-.33-.41-.3T32.63,4q-.18.3-.37.67l-.37.75-.35.77-.32.7a.55.55,0,0,1-.26.14.58.58,0,0,1-.32,0,.5.5,0,0,1-.24-.14.31.31,0,0,1-.09-.2Q30.16,5.49,30,4.57t-.37-1.89a.86.86,0,0,1,0-.53c0-.13.19-.18.45-.15A.75.75,0,0,1,30.7,2.63Z"/><path class="cls-1" d="M43.68,5.75a1.7,1.7,0,0,1-.28.82,1.73,1.73,0,0,1-.58.53,2,2,0,0,1-.77.24,2.18,2.18,0,0,1-.83-.07,1.82,1.82,0,0,1-.38-.14,2.4,2.4,0,0,1-.38-.23,1.11,1.11,0,0,1-.28-.3.59.59,0,0,1-.09-.37.44.44,0,0,1,.16-.31l.29-.27.33-.16a.31.31,0,0,1,.35.09.41.41,0,0,1,0,.36l-.11.3c0,.11,0,.18.15.22a1.37,1.37,0,0,0,.5,0,1,1,0,0,0,.68-.27,1.16,1.16,0,0,0,.29-.6,2.72,2.72,0,0,0,0-.79q0-.43-.12-.83a5,5,0,0,0-.54-1.39,5.88,5.88,0,0,0-.85-1.16.7.7,0,0,1-.19-.33.34.34,0,0,1,.13-.33.52.52,0,0,1,.41-.12A1,1,0,0,1,42,.88a5.17,5.17,0,0,1,1.34,2A6.73,6.73,0,0,1,43.68,5.75Z"/><path class="cls-1" d="M46.17,3.12q-.09.39-.18.86a8.66,8.66,0,0,0-.13.9,4,4,0,0,0,0,.78.78.78,0,0,0,.19.49.79.79,0,0,0,.59-.21,3.88,3.88,0,0,0,.65-.64,6.09,6.09,0,0,0,.57-.85,4.14,4.14,0,0,0,.36-.8q.06-.17.11-.36a1.64,1.64,0,0,0,0-.39q0-.12.16-.22a.67.67,0,0,1,.26-.12.3.3,0,0,1,.17,0,.62.62,0,0,1,.18.12,1,1,0,0,1,.15.19.42.42,0,0,1,.07.22q0,.43.09,1t.14,1q.08.52.17,1T50,7a.44.44,0,0,1-.09.36.54.54,0,0,1-.3.25.47.47,0,0,1-.28,0,.41.41,0,0,1-.22-.23,4.06,4.06,0,0,1-.14-.5q-.07-.3-.12-.62l-.1-.62c0-.2-.05-.36-.06-.5a7.1,7.1,0,0,1-.54.79,5.9,5.9,0,0,1-.66.72,3,3,0,0,1-.74.51,1.47,1.47,0,0,1-.79.14q-.6-.07-.92-1.08a3,3,0,0,1-.11-.9,7.89,7.89,0,0,1,.08-1q.07-.48.17-.92t.17-.71a.47.47,0,0,1,.12-.21.21.21,0,0,1,.21-.06.74.74,0,0,1,.41.26A.48.48,0,0,1,46.17,3.12Z"/><path class="cls-1" d="M51.85,5.16A.59.59,0,0,1,51.48,5a.49.49,0,0,1-.17-.36.3.3,0,0,1,.18-.29A1.42,1.42,0,0,1,52,4.22l.6,0,.57,0,.57-.66.59-.66A9.09,9.09,0,0,0,52.8,3l-1.3.25a.85.85,0,0,1-.38-.12.48.48,0,0,1-.26-.29.59.59,0,0,1,0-.28.33.33,0,0,1,.2-.21l.48-.12.77-.17q.42-.09.86-.14a6,6,0,0,1,.77-.06,2.86,2.86,0,0,1,.66.07,1.34,1.34,0,0,1,.57.29.62.62,0,0,1,.17.47.62.62,0,0,1-.17.47l-.36.45-.42.54h1.87l.23,0a1,1,0,0,1,.25.09.86.86,0,0,1,.21.16.38.38,0,0,1,.11.22c0,.18,0,.3-.15.35a1,1,0,0,1-.48.05l-2.82.09q-.35.43-.63.82l-.44.63q.83,0,1.79-.09t1.86-.22a.44.44,0,0,1,.23,0,1.23,1.23,0,0,1,.23.13.91.91,0,0,1,.19.17.28.28,0,0,1,.08.17.21.21,0,0,1-.08.14.75.75,0,0,1-.17.12l-.21.09-.19.06-1.06.17L54,7.49l-1.11.09q-.54,0-1,0a1.38,1.38,0,0,1-.44-.06.61.61,0,0,1-.29-.19A.45.45,0,0,1,51.11,7a1,1,0,0,1,.17-.45l.54-.71q.26-.36.55-.72Z"/><path class="cls-1" d="M59.35.64q.08,1.58.26,3.26T60,7.11q0,.64-.36.65a.31.31,0,0,1-.18-.06.76.76,0,0,1-.17-.17l-.14-.22a.63.63,0,0,1-.08-.2q-.12-.74-.23-1.56T58.65,3.9q-.08-.83-.14-1.63T58.43.81a2.75,2.75,0,0,1,.11-.59A.29.29,0,0,1,58.85,0a.43.43,0,0,1,.37.2A.92.92,0,0,1,59.35.64Z"/></svg>